#!OML:ASF E:/inclinewalkrobotboard/Project1/Captureday1/Session1/subject1.ASF
:FULLY-SPECIFIED
:DEGREES
251
root 0 0 0 -2.5746375679448232 -0.16728684056154464 -1.1330778985259844
lowerback 10.45014768192032 -0.357414121995543 -0.4903089584027518
upperback 0.3885592748053681 -0.4152690187840151 1.8618102493259747
thorax -5.3572872646447784 -0.16739552912534245 2.2802555091034584
lowerneck -17.736667286407577 -2.7399519438611724 -1.7292915479240305
upperneck 20.059134372956642 -3.3351265388500035 -0.03522271428178847
head 9.250884149826813 -1.654305838090409 -0.17241079083457178
rclavicle -4.587960413274269E-16 -3.188641744135925E-16
rhumerus -28.8948597599037 -17.848269119148547 -78.00270749568764
rradius 26.847230726356337
rwrist 4.435990632452227
rhand -17.71172205787447 22.346608031097862
rfingers 7.125020000000022
rthumb 8.540666207902078 -7.468467726480295
lclavicle -7.374338373305013E-16 -2.0226345185409423E-16
lhumerus -29.075752151659273 -2.884149868506242 82.20949053562082
lradius 34.966158006234615
lwrist 5.935832301748938
lhand -24.835864565357355 24.355151010481816
lfingers 7.1232183193556935
lthumb 1.6463245767524928 53.71661439331397
rfemur -4.144732768403461 7.078533526204562 30.61459720472735
rtibia 29.512643884885843
rfoot -12.892288893929223 -5.802790218968756
rtoes 3.157304289982746
lfemur -18.255160444843153 0.7678592440223277 -13.435837153825346
ltibia 54.8587276519675
lfoot 4.002040481977129 -8.992119764924569
ltoes -6.25390360863076
252
root 0 0 0 -2.447779476522571 -0.8989272612521795 -2.5792397524758295
lowerback 10.483354739892146 0.22481018326908586 1.0989973309506054
upperback 0.36025555340397997 0.541412188762345 1.8964079984420277
thorax -5.39862291545208 0.2739206699360744 1.2951491068342067
lowerneck -17.823696352023465 -2.8382429406628535 -1.5696826374793327
upperneck 20.068984787571967 -3.4915609284274387 -0.08793370834376457
head 9.277103193921906 -1.7137298899154367 -0.2414553499366785
rclavicle -4.652164470786697E-16 -3.2567770830131684E-16
rhumerus -28.84011748106122 -17.78284096107398 -78.0012158130443
rradius 26.904686197607596
rwrist 4.444748783035154
rhand -17.717425995090597 22.30479689379052
rfingers 7.1250200000000214
rthumb 8.533680007751023 -7.5090184605154136
lclavicle -7.319220699164428E-16 -2.09301790772809E-16
lhumerus -29.171595156693122 -2.774362002046889 82.21527171318722
lradius 34.75472090287372
lwrist 5.918444909302141
lhand -24.898610148708375 24.31975872001833
lfingers 7.1232882076569615
lthumb 1.586534596077188 53.69909463019412
rfemur -3.1345369246318455 7.391558274794939 31.154106993057077
rtibia 27.85502220667389
rfoot -13.725348326818937 -5.816118452777743
rtoes 2.900149635802233
lfemur -20.64813472291694 0.7853602762709873 -12.291309783613608
ltibia 55.51053091663323
lfoot 4.391817948003187 -8.375482009227492
ltoes -5.947837571400261
253
root 0 0 0 -2.309717482310008 -2.1798454867223462 -4.130989385111859
lowerback 10.50123998440089 0.9325841335306858 2.8219831945946634
upperback 0.37582981056135223 1.6743143611176912 1.8687274733646388
thorax -5.383034377038672 0.7938124773023671 0.14572394071318281
lowerneck -17.681414416590727 -2.979384198121005 -1.4929695713057782
upperneck 19.877089448903977 -3.7290712705522284 0.04668118675671096
head 9.201709288691923 -1.8089564525404596 -0.2353841499549505
rclavicle -4.8411146148802125E-16 -3.2022985287378133E-16
rhumerus -28.646215365355957 -17.58908922066818 -77.97005088935472
rradius 27.09271278173607
rwrist 4.481005853443088
rhand -17.74714176934794 22.162750568368544
rfingers 7.12502000000002
rthumb 8.505347422706993 -7.648219573454668
lclavicle -7.353143053446659E-16 -2.0961304302675488E-16
lhumerus -29.294464108656236 -2.6313716862316063 82.22154075727815
lradius 34.48576539961024
lwrist 5.894495423469789
lhand -24.977573437541064 24.27363895435276
lfingers 7.123364533916057
lthumb 1.5128021171600672 53.676274830100766
rfemur -2.6737022768109284 7.556223740127253 31.375281422642118
rtibia 27.043704406719563
rfoot -14.142632824087757 -5.840822843172567
rtoes 2.739107691860416
lfemur -21.177092651665763 0.43156785391443764 -12.233123504984905
ltibia 52.965173708556335
lfoot 2.9691189443895016 -6.851207548964275
ltoes -5.466066528640538
254
root 0 0 0 -2.1958395708303313 -3.743128160832507 -5.4508218791111815
lowerback 10.498086270606287 1.6228241691969227 4.294636446347625
upperback 0.42362092436775844 2.7516328040068427 1.780879684557644
thorax -5.318890215516582 1.285371328582155 -0.9226897376800646
lowerneck -17.36843750117783 -3.1400617589551802 -1.509441590881086
upperneck 19.540019165436696 -4.006622163678323 0.3394935406539581
head 9.046734260780276 -1.925223056400718 -0.15568130069911312
rclavicle -5.011502561209846E-16 -3.0598841149368235E-16
rhumerus -28.515459928834265 -17.46420323693905 -77.94797257483711
rradius 27.21533331659768
rwrist 4.505083145667884
rhand -17.769055938207693 22.069757044365872
rfingers 7.125020000000018
rthumb 8.48546270634236 -7.7393045784782615
lclavicle -7.288193827062021E-16 -2.0311505463775472E-16
lhumerus -29.525635819311937 -2.3778687126251015 82.23824774964392
lradius 33.99963006792302
lwrist 5.8464123796064715
lhand -25.12198431555357 24.18583869475785
lfingers 7.123466534690467
lthumb 1.375989653821133 53.63578748469969
rfemur -2.4484809262064573 7.625382562276214 31.48573710573456
rtibia 26.679131556029027
rfoot -14.323558414147952 -5.843021557687117
rtoes 2.6584313067460927
lfemur -21.11492052658102 -0.08727592742291201 -12.579739835193509
ltibia 49.04924773389666
lfoot 0.9180179666156008 -4.994612323458064
ltoes -4.823416603092722
